<?xml version="1.0" encoding="utf-8"?>
<!-- Generator: Adobe Illustrator 26.1.0, SVG Export Plug-In . SVG Version: 6.00 Build 0)  -->
<svg version="1.1" id="Layer_1" xmlns="http://www.w3.org/2000/svg" xmlns:xlink="http://www.w3.org/1999/xlink" x="0px" y="0px"
	 viewBox="0 0 1920 1080" style="enable-background:new 0 0 1920 1080;" xml:space="preserve">
<style type="text/css">
	.st0{fill:#FFFFFF;stroke:#000000;stroke-miterlimit:10;}
	.st1{font-family:'MyriadPro-Regular';}
	.st2{font-size:48px;}
	.st3{fill:#FFFFFF;stroke:#000000;stroke-width:2;stroke-miterlimit:10;}
	.st4{font-size:31px;}
	.st5{fill:none;stroke:#000000;stroke-width:2;stroke-miterlimit:10;}
	.st6{font-size:33.564px;}
	.st7{font-size:25.7328px;}
</style>
<path d="M-102,439"/>
<rect x="23" y="26" class="st0" width="1866.1" height="626"/>
<text transform="matrix(1 0 0 1 33.5591 66.1489)" class="st1 st2">main</text>
<rect x="36.9" y="81" class="st3" width="1809" height="51.6"/>
<text transform="matrix(1 0 0 1 49.2681 118.3135)" class="st1 st4">h1</text>
<polygon class="st5" points="36.9,158.7 1845.9,163.1 1845.9,222.9 36.9,222.9 "/>
<text transform="matrix(0.9606 0 0 1 51.1118 201.3237)" class="st1 st4">element - Img</text>
<polygon class="st3" points="36.9,250.8 1845.9,254.9 1845.9,620.8 36.9,620.8 "/>
<text transform="matrix(1 0 0 1 43.6084 281.0156)" class="st1 st4">.grid_1-1</text>
<polygon class="st3" points="76.2,321.8 893,322 893,595.6 76.2,595.6 "/>
<polygon class="st3" points="941.2,321.8 1793,322 1793,595.6 941.2,595.6 "/>
<text transform="matrix(1 0 0 1 93.3726 360.7344)" class="st1 st4">.col</text>
<text transform="matrix(0.9236 0 0 1 960.373 359.0933)" class="st1 st6">.col</text>
<rect x="23.2" y="687.8" class="st3" width="1800.7" height="116.4"/>
<rect x="23.2" y="828.8" class="st3" width="1800.7" height="116.4"/>
<text transform="matrix(1 0 0 1 36.9453 728.4922)" class="st1 st4">iframe</text>
<text transform="matrix(1 0 0 1 36.5205 867.6406)" class="st1 st4">video</text>
<polygon class="st3" points="107.5,383.7 852,384 852,458.7 107.5,458.7 "/>
<polygon class="st3" points="1002.5,383.7 1747,383.8 1747,421 1002.5,421 "/>
<polygon class="st3" points="1002.5,439.7 1747,439.8 1747,477 1002.5,477 "/>
<polygon class="st3" points="1002.5,506.7 1747,506.8 1747,544 1002.5,544 "/>
<polygon class="st3" points="107.5,488.7 852,489 852,563.7 107.5,563.7 "/>
<text transform="matrix(1 0 0 1 131.2964 421.1909)" class="st1 st4">element - img</text>
<text transform="matrix(1.0543 0 0 1 1019.2959 412.5078)" class="st1 st7">element - img</text>
<text transform="matrix(1.0543 0 0 1 1019.2959 466.5078)" class="st1 st7">element - img</text>
<text transform="matrix(1.0543 0 0 1 1018.2959 531.5078)" class="st1 st7">element - img</text>
<text transform="matrix(1 0 0 1 131.2964 532.1909)" class="st1 st4">element - img</text>
</svg>
